#!OML:ASF F:\VICON\USERDATA\Patient Classification 1\PLAYGROUND\JustinFriday\JustinFriday.ASF
:FULLY-SPECIFIED
:DEGREES
1359
root -26.1543 17.9847 0.206549 355.96 13.3159 -10.314
lowerback 15.9298 4.20556 10.3025
upperback 2.70374 7.4877 2.87106
thorax -5.06125 3.53503 -4.13605
lowerneck -11.5048 -3.3941 1.33359
upperneck 13.4103 -5.09142 1.77722
head 5.96788 -2.25502 -0.0847168
rclavicle 3.10104e-014 1.51076e-014
rhumerus -23.8697 -16.2614 -83.2642
rradius 28.0712
rwrist -10.8642
rhand -22.2842 -21.7016
rfingers 7.12502
rthumb 4.13432 -51.6412
lclavicle 3.10104e-014 1.51076e-014
lhumerus -34.841 -6.86412 85.1564
lradius 38.8655
lwrist 1.74713
lhand -10.8055 -6.83892
lfingers 7.12502
lthumb 15.2078 22.5822
rfemur 8.89124 2.6111 31.9622
rtibia 1.59028e-015
rfoot -3.73746 -3.82154
rtoes 22.0691
lfemur -47.4159 13.6269 -8.73822
ltibia 99.6361
lfoot -24.0301 -15.8275
ltoes 0.110586
1360
root -26.0791 18.0055 0.327678 356.321 14.4438 -8.7816
lowerback 15.5611 3.89674 9.43265
upperback 2.71027 6.86125 2.40078
thorax -4.9806 3.24693 -4.02461
lowerneck -10.1334 -3.3698 2.34337
upperneck 12.2014 -4.99819 0.679551
head 5.29995 -2.2758 -0.539944
rclavicle 2.08724e-015 1.78906e-014
rhumerus -23.7463 -15.363 -83.5169
rradius 28.8778
rwrist -10.3085
rhand -20.2587 -24.1325
rfingers 7.12502
rthumb 6.09003 -54.0249
lclavicle 2.08724e-015 1.78906e-014
lhumerus -35.0197 -6.74061 85.3392
lradius 38.1476
lwrist 1.75728
lhand -10.9939 -8.85744
lfingers 7.12502
lthumb 15.0264 20.5773
rfemur 9.50764 1.65718 29.998
rtibia 1.59028e-015
rfoot -4.66535 -3.76049
rtoes 22.5773
lfemur -47.6127 11.3655 -11.4387
ltibia 97.1813
lfoot -24.4406 -13.5312
ltoes -1.15816
1361
root -26.1294 17.9374 0.504029 354.763 13.6328 -10.9942
lowerback 14.6068 4.19382 9.5408
upperback 3.82525 7.15212 3.8667
thorax -3.41343 3.51056 -2.43809
lowerneck -9.45453 -3.23016 1.69752
upperneck 11.1032 -4.67275 0.674682
head 4.86183 -2.16807 -0.387667
rclavicle -1.82882e-014 -7.07673e-014
rhumerus -22.3551 -14.0548 -83.6194
rradius 29.5857
rwrist -10.6122
rhand -19.3792 -26.7292
rfingers 7.12502
rthumb 6.93911 -56.5955
lclavicle -1.82882e-014 -7.07673e-014
lhumerus -34.1732 -5.52461 85.7817
lradius 37.2595
lwrist 1.22015
lhand -10.7518 -10.3167
lfingers 7.12502
lthumb 15.2595 19.1004
rfemur 11.259 2.09744 32.988
rtibia -2.54444e-014
rfoot -5.1957 -3.9135
rtoes 18.511
lfemur -47.1765 12.9757 -8.07152
ltibia 95.4651
lfoot -25.3499 -14.2044
ltoes -5.37297
1362
root -26.0207 17.9382 0.58687 355.957 14.761 -9.13427
lowerback 15.7682 3.71605 9.87394
upperback 1.53075 6.77632 1.82412
thorax -6.25632 3.07935 -4.94792
lowerneck -5.66803 -3.27739 3.71805
upperneck 10.824 -4.88089 1.10487
head 4.53433 -2.17772 -0.559782
rclavicle 8.7049e-014 2.51463e-014
rhumerus -25.3535 -14.5943 -84.8962
rradius 29.2985
rwrist -10.6263
rhand -19.2162 -24.1201
rfingers 7.12502
rthumb 7.09649 -53.9811
lclavicle 8.7049e-014 2.51463e-014
lhumerus -37.5479 -6.8475 84.1445
lradius 36.8381
lwrist 1.11462
lhand -10.1134 -10.206
lfingers 7.12502
lthumb 15.8744 19.1633
rfemur 10.8484 1.36209 30.4963
rtibia -3.18055e-014
rfoot -5.7338 -3.9895
rtoes 15.8154
lfemur -48.3229 10.569 -11.4274
ltibia 93.0127
lfoot -25.7476 -12.5101
ltoes -6.91907
1363
root -26.0557 17.8776 0.748501 354.449 13.7321 -11.3729
lowerback 16.7761 3.89986 10.7615
upperback 2.49465 7.328 3.22014
thorax -5.76319 3.40007 -4.08582
lowerneck -8.74408 -3.25489 1.17162
upperneck 12.2447 -4.83598 2.20102
head 5.14879 -2.1527 0.15678
rclavicle -1.42628e-014 -2.14687e-014
rhumerus -22.7419 -12.2177 -84.682
rradius 28.3973
rwrist -12.1085
rhand -19.9117 -22.7813
rfingers 7.12502
rthumb 6.42505 -52.6639
lclavicle -1.42628e-014 -2.14687e-014
lhumerus -35.8784 -5.40359 84.8984
lradius 35.7563
lwrist 0.350367
lhand -9.73677 -9.07907
lfingers 7.12502
lthumb 16.2371 20.261
rfemur 12.3852 2.00224 33.4265
rtibia -9.54166e-015
rfoot -6.23356 -3.95477
rtoes 16.8371
lfemur -47.8587 12.14 -8.10328
ltibia 91.0771
lfoot -25.9644 -14.5914
ltoes -7.09153
1364
root -26.0105 17.8717 0.842485 355.223 14.2499 -10.1503
lowerback 14.8414 3.94611 8.78683
upperback 3.96904 6.72916 3.80021
thorax -3.51269 3.30465 -2.05502
lowerneck -10.9935 -3.09871 -0.591641
upperneck 12.0467 -4.41134 2.40096
head 5.50678 -1.99837 0.498628
rclavicle -4.81059e-014 9.14409e-015
rhumerus -19.3974 -9.6848 -84.2899
rradius 27.9028
rwrist -12.9087
rhand -19.572 -21.9298
rfingers 7.12502
rthumb 6.75296 -51.8021
lclavicle -4.81059e-014 9.14409e-015
lhumerus -33.1553 -2.91644 85.9263
lradius 34.5805
lwrist -0.343901
lhand -9.89252 -9.28327
lfingers 7.12502
lthumb 16.0871 20.069
rfemur 12.2312 1.76278 32.0532
rtibia 6.36111e-015
rfoot -6.23496 -4.05674
rtoes 15.8366
lfemur -48.5357 11.0223 -9.95603
ltibia 88.3612
lfoot -25.0383 -13.284
ltoes -3.21998
1365
root -25.9722 17.814 0.914979 355.404 14.1332 -10.6264
lowerback 15.3927 3.93807 9.52882
upperback 3.45542 6.93171 3.64856
thorax -4.23138 3.34805 -2.72151
lowerneck -10.3872 -3.09717 -0.234403
upperneck 12.1234 -4.45031 2.29176
head 5.41852 -2.01247 0.412982
rclavicle -3.85642e-014 -3.02153e-014
rhumerus -19.9615 -10.1061 -84.6994
rradius 28.4382
rwrist -11.8254
rhand -17.7604 -22.5555
rfingers 7.12502
rthumb 8.50157 -52.3643
lclavicle -3.85642e-014 -3.02153e-014
lhumerus -33.6175 -2.89758 85.7464
lradius 33.9455
lwrist -0.302099
lhand -9.9173 -10.4714
lfingers 7.12502
lthumb 16.0633 18.8828
rfemur 12.2012 1.94561 32.6293
rtibia 4.77083e-015
rfoot -6.1587 -4.38136
rtoes 13.2491
lfemur -49.2813 10.7307 -9.53808
ltibia 85.8898
lfoot -23.5549 -13.9658
ltoes 1.20722
1366
root -25.9295 17.7845 1.1058 355.051 13.5216 -10.9023
lowerback 14.9623 4.07992 9.74399
upperback 3.43883 7.08801 3.48555
thorax -3.94999 3.43747 -2.99158
lowerneck -9.75613 -2.97647 0.444329
upperneck 12.2409 -4.36018 2.09099
head 5.32825 -1.95431 0.257077
rclavicle -5.93372e-014 -1.43125e-014
rhumerus -20.5432 -10.5435 -85.5066
rradius 29.0759
rwrist -10.5513
rhand -17.0726 -23.5311
rfingers 7.12502
rthumb 9.16533 -53.312
lclavicle -5.93372e-014 -1.43125e-014
lhumerus -34.9418 -3.7515 85.3215
lradius 34.4884
lwrist 0.529274
lhand -9.63163 -10.5313
lfingers 7.12502
lthumb 16.3384 18.8005
rfemur 13.2726 2.48869 33.0733
rtibia 4.77083e-015
rfoot -6.68845 -4.54449
rtoes 20.1738
lfemur -48.2998 10.9777 -8.85731
ltibia 82.8454
lfoot -23.0073 -14.8005
ltoes 2.543
1367
root -25.9059 17.7473 1.22713 354.55 13.364 -12.1233
lowerback 15.4328 3.85869 10.7706
upperback 3.47801 7.03885 3.87203
thorax -4.09328 3.39719 -3.17189
lowerneck -9.85143 -2.90772 0.151641
upperneck 12.1096 -4.22424 2.11193
head 5.30865 -1.90163 0.320604
rclavicle -2.41523e-014 2.78299e-014
rhumerus -20.1513 -9.52037 -85.919
rradius 29.3968
rwrist -10.7322
rhand -17.178 -23.8182
rfingers 7.12502
rthumb 9.0636 -53.6035
lclavicle -2.41523e-014 2.78299e-014
lhumerus -35.5632 -3.69933 85.3834
lradius 34.9454
lwrist 1.19794
lhand -9.44958 -10.2243
lfingers 7.12502
lthumb 16.5136 19.0929
rfemur 13.8708 2.5154 34.4917
rtibia -1.11319e-014
rfoot -6.65746 -4.74041
rtoes 14.3911
lfemur -47.9967 10.9879 -7.47381
ltibia 79.6286
lfoot -22.763 -13.8962
ltoes 0.188198
1368
root -25.82 17.7998 1.30247 356.728 14.9924 -8.01446
lowerback 15.1858 3.96926 7.60217
upperback 2.62564 6.64462 2.62592
thorax -5.13373 3.16312 -2.73006
lowerneck -8.46332 -3.19253 -0.300944
upperneck 11.5517 -4.55847 2.43179
head 4.92273 -2.08249 0.49589
rclavicle 1.85367e-014 2.0276e-014
rhumerus -20.7423 -9.08674 -85.6128
rradius 29.6421
rwrist -11.0693
rhand -16.8368 -23.8077
rfingers 7.12502
rthumb 9.39282 -53.5784
lclavicle 1.85367e-014 2.0276e-014
lhumerus -35.8754 -3.1674 85.5132
lradius 33.6055
lwrist 0.3259
lhand -9.15086 -10.4058
lfingers 7.12502
lthumb 16.8012 18.8873
rfemur 13.0211 1.55584 29.6822
rtibia 3.02153e-014
rfoot -7.01999 -4.82479
rtoes 12.0732
lfemur -48.3184 8.65196 -13.0289
ltibia 75.2943
lfoot -22.9274 -10.2409
ltoes -3.40907
1369
root -25.79 17.7466 1.38757 356.313 14.8397 -8.7908
lowerback 15.4466 3.84949 8.17915
upperback 2.17696 6.63549 2.56061
thorax -5.68513 3.10951 -3.15811
lowerneck -6.10363 -2.90479 0.231851
upperneck 10.6975 -4.2298 2.81017
head 4.71862 -1.9126 0.660245
rclavicle -1.77415e-014 -1.76918e-014
rhumerus -21.4786 -9.05695 -86.3156
rradius 29.918
rwrist -10.0674
rhand -16.639 -23.2937
rfingers 7.12502
rthumb 9.58362 -53.0557
lclavicle -1.77415e-014 -1.76918e-014
lhumerus -36.7373 -2.64468 84.6297
lradius 32.9288
lwrist -0.215112
lhand -8.74539 -10.4488
lfingers 7.12502
lthumb 17.1915 18.8107
rfemur 13.5801 1.66285 30.5871
rtibia 1.59028e-015
rfoot -7.19942 -4.92024
rtoes 12.4666
lfemur -47.7888 8.79059 -12.2504
ltibia 71.6531
lfoot -22.5115 -8.51686
ltoes -6.64754
